<svg width="1730" height="389" viewBox="0 0 1730 389" fill="none" xmlns="http://www.w3.org/2000/svg">
<path d="M751 207.456V65H766.466L841.677 181.727V65H855.921V207.457H840.542L765.245 90.7603V207.457L751 207.456Z" fill="white"/>
<path d="M963.747 100.876H977.991V202.63H963.747L963.252 183.704C959.919 190.158 955.267 195.371 949.297 199.345C943.328 203.298 936.205 205.275 927.929 205.275C920.467 205.275 913.48 203.87 906.968 201.06C900.455 198.25 894.728 194.364 889.787 189.402C884.824 184.46 880.958 178.732 878.186 172.22C875.395 165.708 874 158.721 874 151.258C874 143.933 875.376 137.042 878.129 130.588C880.88 124.154 884.679 118.495 889.524 113.609C894.37 108.724 900 104.906 906.416 102.156C912.831 99.4037 919.702 98.0275 927.027 98.0275C935.498 98.0275 942.892 100.053 949.21 104.104C955.509 108.135 960.529 113.407 964.27 119.919L963.747 100.876ZM927.638 191.438C934.887 191.438 941.128 189.665 946.361 186.117C951.574 182.551 955.586 177.744 958.397 171.698C961.227 165.67 962.642 159.021 962.642 151.753C962.642 144.291 961.217 137.566 958.368 131.578C955.519 125.569 951.479 120.801 946.246 117.273C941.032 113.746 934.829 111.982 927.638 111.982C920.448 111.982 913.878 113.766 907.928 117.332C901.997 120.878 897.287 125.675 893.798 131.723C890.31 137.75 888.566 144.427 888.566 151.753C888.566 159.157 890.358 165.863 893.944 171.871C897.548 177.861 902.316 182.619 908.247 186.146C914.178 189.673 920.642 191.437 927.638 191.437" fill="white"/>
<path d="M1065.7 100.876H1080.76L1025.12 253.507H1009.94L1028.46 202.631L991.946 100.876H1007.5L1035.58 183.006L1065.7 100.876Z" fill="white"/>
<path d="M1178.65 100.876H1192.9V202.63H1178.65L1178.16 183.704C1174.82 190.158 1170.17 195.371 1164.2 199.345C1158.23 203.298 1151.11 205.275 1142.83 205.275C1135.37 205.275 1128.38 203.87 1121.87 201.06C1115.36 198.25 1109.63 194.364 1104.69 189.402C1099.73 184.46 1095.86 178.732 1093.09 172.22C1090.3 165.708 1088.9 158.721 1088.9 151.258C1088.9 143.933 1090.28 137.042 1093.03 130.588C1095.78 124.154 1099.58 118.495 1104.43 113.609C1109.27 108.724 1114.9 104.906 1121.32 102.156C1127.73 99.4037 1134.6 98.0275 1141.93 98.0275C1150.4 98.0275 1157.79 100.053 1164.11 104.104C1170.41 108.135 1175.43 113.407 1179.17 119.919L1178.65 100.876ZM1142.54 191.438C1149.79 191.438 1156.03 189.665 1161.26 186.117C1166.48 182.551 1170.49 177.744 1173.3 171.698C1176.13 165.67 1177.54 159.021 1177.54 151.753C1177.54 144.291 1176.12 137.566 1173.27 131.578C1170.42 125.569 1166.38 120.801 1161.15 117.273C1155.93 113.746 1149.73 111.982 1142.54 111.982C1135.35 111.982 1128.78 113.766 1122.83 117.332C1116.9 120.878 1112.19 125.675 1108.7 131.723C1105.21 137.75 1103.47 144.427 1103.47 151.753C1103.47 159.157 1105.26 165.863 1108.85 171.871C1112.45 177.861 1117.22 182.619 1123.15 186.146C1129.08 189.673 1135.54 191.437 1142.54 191.437" fill="white"/>
<path d="M1328.02 205.276C1318.39 205.276 1309.34 203.367 1300.87 199.548C1292.38 195.711 1284.93 190.42 1278.51 183.675C1272.12 176.91 1267.1 169.051 1263.45 160.097C1259.83 151.143 1258.02 141.578 1258.02 131.402C1258.02 121.227 1259.83 111.662 1263.45 102.708C1267.1 93.754 1272.12 85.9046 1278.51 79.1597C1284.93 72.4148 1292.38 67.1235 1300.87 63.2858C1309.34 59.449 1318.39 57.5305 1328.02 57.5305C1339.56 57.5305 1350.18 60.2147 1359.89 65.583C1369.58 70.9321 1377.61 78.0549 1383.99 86.9513L1371.37 93.754C1366.35 87.0482 1359.99 81.7087 1352.3 77.7353C1344.61 73.7619 1336.51 71.7752 1328.02 71.7752C1320.23 71.7752 1312.95 73.3549 1306.19 76.5143C1299.45 79.6729 1293.53 83.9949 1288.46 89.4806C1283.36 94.9845 1279.39 101.332 1276.54 108.523C1273.69 115.714 1272.26 123.34 1272.26 131.402C1272.26 139.62 1273.71 147.325 1276.6 154.516C1279.48 161.707 1283.49 168.044 1288.6 173.529C1293.72 179.033 1299.65 183.326 1306.39 186.407C1313.16 189.489 1320.37 191.03 1328.02 191.03C1336.84 191.03 1345.03 189.014 1352.59 184.982C1360.17 180.952 1366.43 175.68 1371.37 169.167L1383.99 175.971C1377.61 184.867 1369.58 191.98 1359.89 197.31C1350.18 202.62 1339.56 205.275 1328.02 205.275" fill="white"/>
<path d="M1444.02 205.276C1434.66 205.276 1426.13 202.873 1418.44 198.066C1410.75 193.24 1404.6 186.776 1400.01 178.674C1395.43 170.573 1393.15 161.599 1393.15 151.753C1393.15 144.291 1394.47 137.324 1397.13 130.85C1399.76 124.377 1403.41 118.678 1408.06 113.755C1412.71 108.832 1418.12 104.985 1424.28 102.213C1430.47 99.4228 1437.05 98.0275 1444.02 98.0275C1453.38 98.0275 1461.91 100.44 1469.61 105.266C1477.32 110.073 1483.46 116.547 1488.04 124.687C1492.61 132.826 1494.9 141.849 1494.9 151.753C1494.9 159.157 1493.58 166.076 1490.95 172.511C1488.29 178.965 1484.64 184.654 1479.99 189.577C1475.35 194.48 1469.97 198.327 1463.82 201.119C1457.68 203.89 1451.08 205.276 1444.02 205.276ZM1444.02 191.031C1450.94 191.031 1457.16 189.218 1462.69 185.593C1468.23 181.969 1472.61 177.172 1475.83 171.202C1479.05 165.233 1480.65 158.75 1480.65 151.753C1480.65 144.64 1479.03 138.079 1475.77 132.071C1472.51 126.063 1468.12 121.266 1462.6 117.68C1457.08 114.076 1450.88 112.273 1444.02 112.273C1437.1 112.273 1430.88 114.095 1425.36 117.739C1419.83 121.363 1415.45 126.16 1412.22 132.13C1409 138.099 1407.39 144.64 1407.39 151.753C1407.39 159.079 1409.06 165.718 1412.39 171.668C1415.71 177.599 1420.14 182.308 1425.71 185.796C1431.27 189.285 1437.38 191.03 1444.02 191.03" fill="white"/>
<path d="M1594.94 50H1609.18V202.63H1594.94V183.617C1591.41 190.129 1586.57 195.371 1580.43 199.345C1574.29 203.298 1567.01 205.275 1558.6 205.275C1551.21 205.275 1544.29 203.889 1537.84 201.117C1531.4 198.327 1525.73 194.48 1520.8 189.577C1515.88 184.654 1512.03 178.965 1509.26 172.511C1506.47 166.076 1505.07 159.157 1505.07 151.753C1505.07 144.369 1506.47 137.44 1509.26 130.966C1512.03 124.474 1515.88 118.775 1520.8 113.871C1525.73 108.949 1531.4 105.092 1537.84 102.301C1544.29 99.5293 1551.21 98.1436 1558.6 98.1436C1567.01 98.1436 1574.29 100.13 1580.43 104.104C1586.57 108.057 1591.41 113.261 1594.94 119.715V50ZM1558.71 191.437C1565.96 191.437 1572.2 189.664 1577.44 186.117C1582.65 182.551 1586.66 177.744 1589.47 171.698C1592.3 165.67 1593.72 159.021 1593.72 151.753C1593.72 144.291 1592.29 137.566 1589.44 131.578C1586.59 125.569 1582.55 120.801 1577.32 117.273C1572.11 113.746 1565.9 111.982 1558.71 111.982C1551.52 111.982 1544.97 113.766 1539.06 117.332C1533.17 120.878 1528.46 125.675 1524.93 131.723C1521.4 137.75 1519.64 144.427 1519.64 151.753C1519.64 159.157 1521.43 165.863 1525.02 171.871C1528.62 177.861 1533.39 182.619 1539.32 186.146C1545.25 189.673 1551.72 191.437 1558.71 191.437Z" fill="white"/>
<path d="M1677.65 205.276C1668.29 205.276 1659.76 202.873 1652.06 198.066C1644.37 193.24 1638.23 186.776 1633.63 178.674C1629.06 170.573 1626.77 161.599 1626.77 151.753C1626.77 144.291 1628.1 137.324 1630.75 130.85C1633.39 124.377 1637.03 118.678 1641.69 113.755C1646.34 108.832 1651.75 104.985 1657.91 102.213C1664.09 99.4228 1670.67 98.0275 1677.65 98.0275C1685.19 98.0275 1692.13 99.5198 1698.46 102.504C1704.8 105.489 1710.26 109.666 1714.83 115.035C1719.43 120.384 1722.89 126.654 1725.21 133.845C1727.56 141.036 1728.53 148.808 1728.12 157.161H1641.83C1642.65 163.596 1644.7 169.362 1647.99 174.459C1651.29 179.536 1655.5 183.558 1660.61 186.524C1665.73 189.471 1671.41 190.973 1677.65 191.031C1684.43 191.031 1690.56 189.267 1696.02 185.738C1701.49 182.211 1705.88 177.366 1709.19 171.202L1723.64 174.546C1719.57 183.578 1713.44 190.962 1705.24 196.699C1697.02 202.417 1687.82 205.276 1677.65 205.276ZM1641.42 145.648H1713.79C1713.3 139.349 1711.38 133.573 1708.03 128.321C1704.68 123.049 1700.35 118.844 1695.06 115.704C1689.77 112.545 1683.97 110.965 1677.65 110.965C1671.35 110.965 1665.58 112.506 1660.35 115.587C1655.14 118.669 1650.86 122.846 1647.53 128.117C1644.22 133.369 1642.18 139.213 1641.42 145.648Z" fill="white"/>
<path d="M902.084 384.305V241.848H947.669C955.267 241.848 962.119 243.699 968.224 247.401C974.329 251.102 979.194 256.092 982.818 262.372C986.462 268.633 988.283 275.668 988.283 283.479C988.283 291.348 986.432 298.432 982.73 304.732C979.029 311.049 974.106 316.04 967.961 319.703C961.837 323.367 955.073 325.199 947.669 325.199H916.33V384.302L902.084 384.305ZM916.328 310.954H946.566C951.584 310.954 956.177 309.714 960.345 307.233C964.512 304.752 967.836 301.399 970.317 297.174C972.797 292.929 974.038 288.122 974.038 282.754C974.038 277.404 972.797 272.607 970.317 268.363C967.836 264.119 964.512 260.765 960.345 258.303C956.178 255.823 951.585 254.583 946.564 254.583H916.33L916.328 310.954Z" fill="white"/>
<path d="M1057.77 384.305H1039.65L1002.53 282.26H1017.68L1048.72 367.616L1079.75 282.26H1094.92L1057.77 384.305Z" fill="white"/>
<path d="M1165.22 296.795H1140.91L1140.8 384.303H1126.55L1126.67 296.795H1108.24V282.551H1126.67L1126.55 250.599H1140.8L1140.91 282.551H1165.22L1165.22 296.795Z" fill="white"/>
<path d="M1185.37 386.949C1183.14 386.949 1181.24 386.154 1179.67 384.564C1178.12 382.976 1177.34 381.028 1177.34 378.722C1177.34 376.551 1178.12 374.671 1179.67 373.081C1181.24 371.472 1183.14 370.668 1185.37 370.668C1187.67 370.668 1189.62 371.472 1191.21 373.081C1192.82 374.671 1193.62 376.551 1193.62 378.722C1193.62 381.028 1192.82 382.976 1191.21 384.564C1189.62 386.154 1187.67 386.949 1185.37 386.949Z" fill="white"/>
<path d="M1266.88 384.305V241.848H1281.13V370.056H1346.54V384.302L1266.88 384.305Z" fill="white"/>
<path d="M1420.94 296.795H1396.61L1396.52 384.303H1382.27L1382.36 296.795H1363.96V282.551H1382.36L1382.27 250.599H1396.52L1396.6 282.551H1420.94L1420.94 296.795Z" fill="white"/>
<path d="M1520.13 231.673H1534.38V384.305H1520.13V365.291C1516.61 371.804 1511.77 377.047 1505.63 381.02C1499.5 384.973 1492.23 386.95 1483.82 386.95C1476.42 386.95 1469.5 385.564 1463.07 382.793C1456.61 380.002 1450.92 376.155 1446 371.251C1441.1 366.328 1437.25 360.639 1434.46 354.185C1431.69 347.751 1430.3 340.832 1430.3 333.428C1430.3 326.044 1431.69 319.115 1434.46 312.642C1437.25 306.148 1441.1 300.45 1446 295.547C1450.92 290.624 1456.61 286.767 1463.07 283.976C1469.5 281.205 1476.42 279.819 1483.82 279.819C1492.23 279.819 1499.5 281.805 1505.63 285.778C1511.77 289.732 1516.61 294.936 1520.13 301.391L1520.13 231.673ZM1483.91 373.111C1491.18 373.111 1497.42 371.337 1502.63 367.79C1507.87 364.224 1511.89 359.417 1514.7 353.371C1517.51 347.342 1518.91 340.694 1518.91 333.427C1518.91 325.965 1517.49 319.239 1514.64 313.251C1511.79 307.242 1507.76 302.474 1502.55 298.946C1497.31 295.419 1491.1 293.655 1483.91 293.655C1476.72 293.655 1470.18 295.439 1464.29 299.005C1458.38 302.552 1453.66 307.349 1450.13 313.396C1446.6 319.423 1444.84 326.1 1444.84 333.427C1444.84 340.83 1446.64 347.536 1450.24 353.544C1453.83 359.533 1458.59 364.292 1464.52 367.819C1470.47 371.347 1476.93 373.111 1483.91 373.111Z" fill="white"/>
<path d="M1562.78 386.949C1560.54 386.949 1558.64 386.154 1557.08 384.564C1555.52 382.976 1554.73 381.028 1554.73 378.722C1554.73 376.551 1555.52 374.671 1557.08 373.081C1558.64 371.472 1560.54 370.668 1562.78 370.668C1565.09 370.668 1567.04 371.472 1568.63 373.081C1570.22 374.671 1571.01 376.551 1571.01 378.722C1571.01 381.028 1570.22 382.976 1568.63 384.564C1567.04 386.154 1565.09 386.949 1562.78 386.949" fill="white"/>
<path d="M223.71 239.383H195.845L150.876 161.169H150.24C150.431 164.423 150.598 167.698 150.739 170.994L151.164 180.869C151.297 184.14 151.434 187.427 151.576 190.732V239.383H132V136H159.64L204.547 213.428H205.046C204.946 210.224 204.826 207.04 204.684 203.878C204.543 200.723 204.414 197.565 204.297 194.402C204.181 191.248 204.077 188.089 203.985 184.926V136H223.71V239.383Z" fill="white"/>
<path d="M551.763 154.727C547.46 154.727 543.652 155.559 540.34 157.223C537.027 158.888 534.243 161.293 531.988 164.439C529.74 167.586 528.038 171.381 526.881 175.825C525.716 180.278 525.134 185.284 525.134 190.844C525.134 198.343 526.066 204.739 527.93 210.032C529.794 215.326 532.683 219.362 536.594 222.142C540.514 224.931 545.571 226.325 551.763 226.325C556.066 226.325 560.381 225.838 564.709 224.864C569.037 223.898 573.74 222.521 578.817 220.732V239.596C574.122 241.526 569.503 242.916 564.959 243.765C560.414 244.614 555.313 245.039 549.653 245.039C538.725 245.039 529.745 242.775 522.712 238.247C515.67 233.728 510.456 227.394 507.069 219.246C503.69 211.098 502 201.585 502 190.707C502 182.675 503.086 175.322 505.258 168.647C507.439 161.972 510.631 156.191 514.834 151.306C519.045 146.429 524.243 142.658 530.427 139.995C536.619 137.332 543.731 136 551.763 136C557.031 136 562.312 136.666 567.605 137.998C572.907 139.329 577.976 141.156 582.811 143.478L575.558 161.755C571.588 159.874 567.597 158.231 563.586 156.824C559.574 155.426 555.633 154.727 551.763 154.727Z" fill="white"/>
<path d="M56.7981 56.7856C-18.936 132.481 -18.936 255.727 56.818 331.451C132.561 407.194 255.758 407.194 331.502 331.47L338.611 324.341L296.676 282.415L289.537 289.533C236.965 342.105 151.355 342.105 98.7344 289.505C46.1639 236.914 46.1639 151.332 98.7344 98.7319C151.335 46.1326 236.937 46.1326 289.537 98.7319L433.613 242.809L475.55 200.893L331.473 56.7856C255.719 -18.9285 132.513 -18.9285 56.7981 56.7856Z" fill="white"/>
<path d="M392.964 56.8734L386.243 63.6237L428.267 105.493L434.987 98.771C447.477 86.215 462.333 76.2607 478.695 69.4843C495.057 62.7079 512.601 59.2439 530.311 59.2929C566.353 59.2929 600.198 73.3353 625.692 98.8097C638.267 111.307 648.237 126.175 655.026 142.552C661.815 158.93 665.286 176.492 665.24 194.22C665.24 230.263 651.196 264.128 625.722 289.612C573.15 342.183 487.559 342.183 434.939 289.612L279.955 134.629L238 176.555L393.012 331.558C468.728 407.283 591.973 407.283 667.697 331.558C704.34 294.856 724.571 246.122 724.571 194.23C724.64 168.71 719.643 143.43 709.87 119.855C700.097 96.2804 685.743 74.8796 667.638 56.8934C649.649 38.7984 628.248 24.4525 604.675 14.6867C581.102 4.92083 555.826 -0.0708466 530.311 0.000759607C504.795 -0.0643221 479.52 4.9283 455.945 14.6901C432.37 24.4519 410.964 38.7892 392.964 56.8734Z" fill="white"/>
</svg>
