<svg xmlns="http://www.w3.org/2000/svg" version="1.1" xmlns:xlink="http://www.w3.org/1999/xlink" width="1500" height="620" viewBox="0 0 1500 620"><svg xml:space="preserve" width="1500" height="620" data-version="2" data-id="lg_DTxIyglmscXC0XP3ZB" viewBox="0 0 801 620" x="0" y="0"><rect width="100%" height="100%" fill="transparent"></rect><path fill="#003893" d="M8.074 463.939V349.832h12.388l60.244 93.498v-93.498h11.41V463.94H79.797l-60.313-93.474v93.474Z"></path><rect width="36.09" height="49" x="-18.05" y="-24.5" fill="none" rx="0" ry="0" transform="translate(51.26 408.05)scale(2.3287)"></rect><path fill="#003893" d="M178.092 382.434h11.41v81.505h-11.41l-.396-15.16q-4.005 7.754-11.178 12.528-7.172 4.75-17.116 4.75-8.965 0-16.79-3.376t-13.762-9.338q-5.962-5.938-9.292-13.763-3.353-7.824-3.353-16.79 0-8.802 3.307-16.557 3.306-7.73 9.128-13.6t13.53-9.174q7.708-3.307 16.51-3.307 10.177 0 17.768 4.867 7.569 4.844 12.063 12.668Zm-28.923 72.54q8.71 0 14.997-4.262 6.264-4.285 9.641-11.55 3.4-7.243 3.4-15.976 0-8.965-3.423-16.16-3.423-7.22-9.71-11.458-6.265-4.238-14.905-4.238-8.639 0-15.788 4.285-7.126 4.261-11.318 11.527-4.191 7.242-4.191 16.044 0 8.896 4.308 16.115 4.331 7.196 11.457 11.434 7.126 4.238 15.532 4.238"></path><rect width="35.77" height="36.89" x="-17.89" y="-18.45" fill="none" rx="0" ry="0" transform="translate(149.02 424.27)scale(2.3287)"></rect><path fill="#003893" d="M259.76 382.434h12.062l-44.571 122.257h-12.156l14.834-40.752-29.249-81.505h12.459l22.495 65.786Z"></path><rect width="30.55" height="52.5" x="-15.28" y="-26.25" fill="none" rx="0" ry="0" transform="translate(237.41 444.73)scale(2.3287)"></rect><path fill="#003893" d="M350.23 382.434h11.41v81.505h-11.41l-.396-15.16q-4.006 7.754-11.178 12.528-7.173 4.75-17.116 4.75-8.966 0-16.79-3.376t-13.763-9.338q-5.961-5.938-9.291-13.763-3.354-7.824-3.354-16.79 0-8.802 3.307-16.557 3.307-7.73 9.129-13.6t13.53-9.174q7.707-3.307 16.51-3.307 10.176 0 17.768 4.867 7.568 4.844 12.063 12.668Zm-28.923 72.54q8.71 0 14.997-4.262 6.264-4.285 9.64-11.55 3.4-7.243 3.4-15.976 0-8.965-3.423-16.16-3.423-7.22-9.71-11.458-6.265-4.238-14.904-4.238-8.64 0-15.789 4.285-7.125 4.261-11.317 11.527-4.192 7.242-4.192 16.044 0 8.896 4.308 16.115 4.332 7.196 11.458 11.434 7.125 4.238 15.532 4.238"></path><rect width="35.77" height="36.89" x="-17.89" y="-18.45" fill="none" rx="0" ry="0" transform="translate(321.15 424.27)scale(2.3287)"></rect><path fill="#003893" d="M469.878 466.058q-11.574 0-21.75-4.588-10.2-4.61-17.908-12.714-7.684-8.128-12.062-18.886-4.355-10.759-4.355-22.985 0-12.225 4.355-22.984 4.378-10.758 12.062-18.862 7.708-8.104 17.908-12.715 10.176-4.61 21.75-4.61 13.856 0 25.523 6.45 11.643 6.427 19.305 17.116l-10.107 5.449q-6.031-8.057-15.276-12.831-9.245-4.774-19.445-4.774-9.361 0-17.489 3.796-8.103 3.795-14.205 10.386-6.124 6.613-9.547 15.253-3.423 8.64-3.423 18.326 0 9.874 3.47 18.514t9.617 15.23q6.148 6.613 14.252 10.315 8.127 3.703 17.325 3.703 10.596 0 19.678-4.844 9.105-4.843 15.043-12.668l10.107 5.45q-7.662 10.688-19.305 17.092-11.667 6.38-25.523 6.38"></path><rect width="43.33" height="50.82" x="-21.66" y="-25.41" fill="none" rx="0" ry="0" transform="translate(465.42 408.05)scale(2.3287)"></rect><path fill="#003893" d="M562.793 466.058q-11.247 0-20.492-5.775-9.245-5.799-14.764-15.533-5.496-9.734-5.496-21.564 0-8.965 3.19-16.743 3.167-7.778 8.756-13.693t12.994-9.245q7.429-3.353 15.812-3.353 11.248 0 20.493 5.798 9.268 5.776 14.764 15.556 5.495 9.78 5.495 21.68 0 8.896-3.167 16.627-3.19 7.755-8.779 13.67-5.565 5.891-12.947 9.245-7.382 3.33-15.859 3.33m0-11.41q8.314 0 14.95-4.356 6.66-4.354 10.526-11.527 3.866-7.172 3.866-15.579 0-8.546-3.912-15.765-3.913-7.219-10.55-11.527-6.636-4.331-14.88-4.331-8.313 0-14.95 4.378-6.637 4.354-10.526 11.527-3.865 7.172-3.865 15.718 0 8.803 4.005 15.952 3.982 7.126 10.665 11.317 6.684 4.192 14.671 4.192"></path><rect width="35" height="36.89" x="-17.5" y="-18.45" fill="none" rx="0" ry="0" transform="translate(563.96 424.27)scale(2.3287)"></rect><path fill="#003893" d="M683.676 341.682h11.41v122.257h-11.41v-15.23q-4.238 7.824-11.62 12.598-7.382 4.75-17.489 4.75-8.872 0-16.627-3.33-7.731-3.353-13.646-9.244-5.915-5.915-9.245-13.67-3.353-7.731-3.353-16.627 0-8.872 3.353-16.65 3.33-7.801 9.245-13.693 5.915-5.914 13.646-9.268 7.755-3.33 16.627-3.33 10.107 0 17.489 4.774 7.382 4.75 11.62 12.505ZM654.66 454.973q8.71 0 14.997-4.261 6.264-4.285 9.641-11.55 3.4-7.243 3.4-15.976 0-8.965-3.423-16.16-3.423-7.22-9.71-11.458-6.265-4.238-14.905-4.238t-15.742 4.285q-7.079 4.261-11.317 11.527-4.238 7.242-4.238 16.044 0 8.896 4.308 16.115 4.331 7.196 11.457 11.434 7.126 4.238 15.532 4.238"></path><rect width="35.81" height="53.41" x="-17.91" y="-26.7" fill="none" rx="0" ry="0" transform="translate(654.55 405.03)scale(2.3287)"></rect><path fill="#003893" d="M749.927 466.058q-11.247 0-20.492-5.775-9.245-5.799-14.764-15.533-5.496-9.734-5.496-21.564 0-8.965 3.19-16.743 3.168-7.778 8.756-13.693 5.59-5.915 12.995-9.245 7.428-3.353 15.811-3.353 9.06 0 16.674 3.586t13.11 10.037q5.52 6.427 8.314 15.067 2.818 8.64 2.329 18.676h-69.116q.978 7.731 4.937 13.856 3.959 6.1 10.106 9.664 6.148 3.54 13.646 3.61 8.15 0 14.718-4.24 6.567-4.237 10.549-11.643l11.574 2.678q-4.89 10.852-14.741 17.745-9.874 6.87-22.1 6.87m-29.015-47.762h57.961q-.582-7.568-4.61-13.879-4.03-6.334-10.387-10.106-6.357-3.796-13.949-3.796-7.568 0-13.855 3.702-6.264 3.703-10.27 10.037-3.982 6.31-4.89 14.042"></path><rect width="34.97" height="36.89" x="-17.48" y="-18.45" fill="none" rx="0" ry="0" transform="translate(751.05 424.27)scale(2.3287)"></rect><path fill="#003893" d="M128.7 609.46V495.352h36.514q9.129 0 16.464 4.448 7.336 4.447 11.69 11.992 4.378 7.522 4.378 16.907 0 9.454-4.448 17.023-4.447 7.591-11.83 11.992-7.358 4.402-16.254 4.402h-25.103v47.342Zm11.41-58.754h24.22q6.03 0 11.037-2.98 5.007-2.981 7.988-8.058 2.98-5.1 2.98-11.55 0-6.428-2.98-11.527-2.981-5.1-7.988-8.058-5.006-2.98-11.038-2.98h-24.218Z"></path><rect width="29.65" height="49" x="-14.82" y="-24.5" fill="none" rx="0" ry="0" transform="translate(164.39 553.57)scale(2.3287)"></rect><path fill="#003893" d="M253.402 609.46h-14.508l-29.737-81.738h12.132l24.87 68.37 24.848-68.37h12.156Z"></path><rect width="31.78" height="35.1" x="-15.89" y="-17.55" fill="none" rx="0" ry="0" transform="translate(247.32 569.75)scale(2.3287)"></rect><path fill="#003893" d="M339.47 539.365h-19.467l-.093 70.094H308.5l.092-70.094h-14.764v-11.41h14.764l-.093-25.593h11.41l.094 25.593h19.468Z"></path><rect width="19.6" height="45.99" x="-9.8" y="-23" fill="none" rx="0" ry="0" transform="translate(317.81 557.08)scale(2.3287)"></rect><path fill="#003893" d="M355.609 611.578q-2.678 0-4.565-1.91-1.862-1.909-1.862-4.68 0-2.608 1.862-4.518 1.887-1.933 4.565-1.933 2.77 0 4.68 1.933 1.933 1.91 1.933 4.518 0 2.771-1.933 4.68-1.91 1.91-4.68 1.91"></path><rect width="5.6" height="5.6" x="-2.8" y="-2.8" fill="none" rx="0" ry="0" transform="translate(356.87 606.22)scale(2.3287)"></rect><path fill="#003893" d="M420.905 609.46V495.352h11.411v102.695h52.396v11.411Z"></path><rect width="27.4" height="49" x="-13.7" y="-24.5" fill="none" rx="0" ry="0" transform="translate(453.97 553.57)scale(2.3287)"></rect><path fill="#003893" d="M544.303 539.365h-19.49l-.07 70.094h-11.411l.07-70.094H498.66v-11.41h14.74l-.07-25.593h11.411l.07 25.593h19.491Z"></path><rect width="19.6" height="45.99" x="-9.8" y="-23" fill="none" rx="0" ry="0" transform="translate(522.65 557.08)scale(2.3287)"></rect><path fill="#003893" d="M623.759 487.202h11.41V609.46h-11.41v-15.23q-4.239 7.825-11.62 12.599-7.36 4.75-17.466 4.75-8.896 0-16.627-3.33-7.754-3.353-13.67-9.245-5.89-5.915-9.244-13.67-3.33-7.73-3.33-16.626 0-8.872 3.33-16.65 3.353-7.802 9.245-13.693 5.915-5.915 13.67-9.268 7.73-3.33 16.626-3.33 10.107 0 17.465 4.773 7.382 4.751 11.62 12.506Zm-29.016 113.292q8.733 0 14.997-4.262 6.287-4.285 9.664-11.55 3.376-7.243 3.376-15.975 0-8.966-3.423-16.161-3.423-7.22-9.687-11.458-6.288-4.238-14.927-4.238t-15.719 4.285q-7.102 4.262-11.34 11.527-4.239 7.242-4.239 16.045 0 8.895 4.332 16.114 4.308 7.196 11.433 11.434 7.15 4.239 15.533 4.239"></path><rect width="35.8" height="53.41" x="-17.9" y="-26.7" fill="none" rx="0" ry="0" transform="translate(594.65 550.55)scale(2.3287)"></rect><path fill="#003893" d="M657.92 611.578q-2.7 0-4.564-1.91-1.886-1.909-1.886-4.68 0-2.608 1.886-4.518 1.863-1.933 4.565-1.933 2.77 0 4.68 1.933 1.91 1.91 1.91 4.518 0 2.771-1.91 4.68-1.91 1.91-4.68 1.91"></path><rect width="5.6" height="5.6" x="-2.8" y="-2.8" fill="none" rx="0" ry="0" transform="translate(659.15 606.22)scale(2.3287)"></rect><path fill="#dc143c" d="M271.24 201.72h-22.32l-36.02-62.65h-.51q.23 3.91.4 7.87l.34 7.91q.16 3.93.33 7.9v38.97h-15.68v-82.81h22.14l35.97 62.02h.4q-.12-3.85-.29-7.65-.17-3.79-.31-7.59-.14-3.79-.25-7.59v-39.19h15.8Z"></path><rect width="73.46" height="82.81" x="-36.73" y="-41.41" fill="none" rx="0" ry="0" transform="translate(235.01 160.81)"></rect><path fill="#dc143c" d="M555.61 136.52q-5.17 0-9.15 2-3.98 2-6.69 5.78-2.7 3.78-4.09 9.12-1.4 5.35-1.4 12.03 0 9.01 2.24 15.37 2.24 6.36 6.94 9.7 4.71 3.35 12.15 3.35 5.17 0 10.37-1.17 5.2-1.16 11.3-3.31v15.11q-5.64 2.32-11.1 3.34t-12.26 1.02q-13.13 0-21.58-5.44-8.46-5.43-12.53-15.22-4.06-9.79-4.06-22.86 0-9.65 2.61-17.67 2.62-8.02 7.67-13.89 5.06-5.86 12.49-9.06 7.44-3.2 17.09-3.2 6.33 0 12.69 1.6 6.37 1.6 12.18 4.39l-5.81 14.64q-4.77-2.26-9.59-3.95-4.82-1.68-9.47-1.68"></path><rect width="64.73" height="87.34" x="-32.37" y="-43.67" fill="none" rx="0" ry="0" transform="translate(548.62 165.69)"></rect><path fill="#dc143c" d="M151.261 51.65c-60.663 60.632-60.663 159.352.016 220.007 60.67 60.67 159.351 60.67 220.022.015l5.694-5.71-33.59-33.583-5.718 5.702c-42.11 42.11-110.684 42.11-152.833-.023-42.109-42.125-42.109-110.676 0-152.809 42.133-42.132 110.7-42.132 152.833 0L453.09 200.655l33.591-33.575L371.276 51.65c-60.679-60.647-159.367-60.647-220.015 0"></path><path fill="#dc143c" d="m414.536 51.65-5.383 5.407 33.661 33.537 5.383-5.384a107.277 107.277 0 0 1 76.354-31.622c28.87 0 55.98 11.248 76.4 31.653a107.347 107.347 0 0 1 31.678 76.424c0 28.87-11.249 55.996-31.654 76.409-42.11 42.109-110.668 42.109-152.817 0L324.016 113.932l-33.606 33.583 124.165 124.157c60.648 60.656 159.367 60.656 220.022 0 29.351-29.398 45.556-68.434 45.556-109.999A154.474 154.474 0 0 0 634.55 51.666 154.497 154.497 0 0 0 524.551 6.095 154.668 154.668 0 0 0 414.536 51.65"></path></svg></svg>
