<svg width="1729" height="389" viewBox="0 0 1729 389" fill="none" xmlns="http://www.w3.org/2000/svg">
<path d="M751 182.456V40H766.466L841.677 156.727V40H855.921V182.457H840.542L765.245 65.7603V182.457L751 182.456Z" fill="#003893"/>
<path d="M963.747 75.8764H977.991V177.63H963.747L963.252 158.704C959.919 165.158 955.267 170.371 949.297 174.345C943.328 178.298 936.205 180.275 927.929 180.275C920.467 180.275 913.48 178.87 906.968 176.06C900.455 173.25 894.728 169.364 889.787 164.402C884.824 159.46 880.958 153.732 878.186 147.22C875.395 140.708 874 133.721 874 126.258C874 118.933 875.376 112.042 878.129 105.588C880.88 99.1544 884.679 93.4948 889.524 88.6092C894.37 83.7237 900 79.906 906.416 77.1561C912.831 74.4037 919.702 73.0275 927.027 73.0275C935.498 73.0275 942.892 75.0529 949.21 79.1036C955.509 83.1353 960.529 88.407 964.27 94.9189L963.747 75.8764ZM927.638 166.438C934.887 166.438 941.128 164.665 946.361 161.117C951.574 157.551 955.586 152.744 958.397 146.698C961.227 140.67 962.642 134.021 962.642 126.753C962.642 119.291 961.217 112.566 958.368 106.578C955.519 100.569 951.479 95.8006 946.246 92.2734C941.032 88.7461 934.829 86.9825 927.638 86.9825C920.448 86.9825 913.878 88.7657 907.928 92.3321C901.997 95.8785 897.287 100.675 893.798 106.723C890.31 112.75 888.566 119.427 888.566 126.753C888.566 134.157 890.358 140.863 893.944 146.871C897.548 152.861 902.316 157.619 908.247 161.146C914.178 164.673 920.642 166.437 927.638 166.437" fill="#003893"/>
<path d="M1065.7 75.8765H1080.76L1025.12 228.507H1009.94L1028.46 177.631L991.946 75.8765H1007.5L1035.58 158.006L1065.7 75.8765Z" fill="#003893"/>
<path d="M1178.65 75.8764H1192.9V177.63H1178.65L1178.16 158.704C1174.82 165.158 1170.17 170.371 1164.2 174.345C1158.23 178.298 1151.11 180.275 1142.83 180.275C1135.37 180.275 1128.38 178.87 1121.87 176.06C1115.36 173.25 1109.63 169.364 1104.69 164.402C1099.73 159.46 1095.86 153.732 1093.09 147.22C1090.3 140.708 1088.9 133.721 1088.9 126.258C1088.9 118.933 1090.28 112.042 1093.03 105.588C1095.78 99.1544 1099.58 93.4948 1104.43 88.6092C1109.27 83.7237 1114.9 79.906 1121.32 77.1561C1127.73 74.4037 1134.6 73.0275 1141.93 73.0275C1150.4 73.0275 1157.79 75.0529 1164.11 79.1036C1170.41 83.1353 1175.43 88.407 1179.17 94.9189L1178.65 75.8764ZM1142.54 166.438C1149.79 166.438 1156.03 164.665 1161.26 161.117C1166.48 157.551 1170.49 152.744 1173.3 146.698C1176.13 140.67 1177.54 134.021 1177.54 126.753C1177.54 119.291 1176.12 112.566 1173.27 106.578C1170.42 100.569 1166.38 95.8006 1161.15 92.2734C1155.93 88.7461 1149.73 86.9825 1142.54 86.9825C1135.35 86.9825 1128.78 88.7657 1122.83 92.3321C1116.9 95.8785 1112.19 100.675 1108.7 106.723C1105.21 112.75 1103.47 119.427 1103.47 126.753C1103.47 134.157 1105.26 140.863 1108.85 146.871C1112.45 152.861 1117.22 157.619 1123.15 161.146C1129.08 164.673 1135.54 166.437 1142.54 166.437" fill="#003893"/>
<path d="M1328.02 180.276C1318.39 180.276 1309.34 178.367 1300.87 174.548C1292.38 170.711 1284.93 165.42 1278.51 158.675C1272.12 151.91 1267.1 144.051 1263.45 135.097C1259.83 126.143 1258.02 116.578 1258.02 106.402C1258.02 96.2272 1259.83 86.6624 1263.45 77.7078C1267.1 68.754 1272.12 60.9046 1278.51 54.1597C1284.93 47.4148 1292.38 42.1235 1300.87 38.2858C1309.34 34.449 1318.39 32.5305 1328.02 32.5305C1339.56 32.5305 1350.18 35.2147 1359.89 40.583C1369.58 45.9321 1377.61 53.0549 1383.99 61.9513L1371.37 68.754C1366.35 62.0482 1359.99 56.7087 1352.3 52.7353C1344.61 48.7619 1336.51 46.7752 1328.02 46.7752C1320.23 46.7752 1312.95 48.3549 1306.19 51.5143C1299.45 54.6729 1293.53 58.9949 1288.46 64.4806C1283.36 69.9845 1279.39 76.332 1276.54 83.523C1273.69 90.714 1272.26 98.3404 1272.26 106.402C1272.26 114.62 1273.71 122.325 1276.6 129.516C1279.48 136.707 1283.49 143.044 1288.6 148.529C1293.72 154.033 1299.65 158.326 1306.39 161.407C1313.16 164.489 1320.37 166.03 1328.02 166.03C1336.84 166.03 1345.03 164.014 1352.59 159.982C1360.17 155.952 1366.43 150.68 1371.37 144.167L1383.99 150.971C1377.61 159.867 1369.58 166.98 1359.89 172.31C1350.18 177.62 1339.56 180.275 1328.02 180.275" fill="#003893"/>
<path d="M1444.02 180.276C1434.66 180.276 1426.13 177.873 1418.44 173.066C1410.75 168.24 1404.6 161.776 1400.01 153.674C1395.43 145.573 1393.15 136.599 1393.15 126.753C1393.15 119.291 1394.47 112.324 1397.13 105.85C1399.76 99.3766 1403.41 93.6783 1408.06 88.7553C1412.71 83.8323 1418.12 79.985 1424.28 77.2135C1430.47 74.4228 1437.05 73.0275 1444.02 73.0275C1453.38 73.0275 1461.91 75.4403 1469.61 80.2659C1477.32 85.0732 1483.46 91.5468 1488.04 99.6866C1492.61 107.826 1494.9 116.849 1494.9 126.753C1494.9 134.157 1493.58 141.076 1490.95 147.511C1488.29 153.965 1484.64 159.654 1479.99 164.577C1475.35 169.48 1469.97 173.327 1463.82 176.119C1457.68 178.89 1451.08 180.276 1444.02 180.276ZM1444.02 166.031C1450.94 166.031 1457.16 164.218 1462.69 160.593C1468.23 156.969 1472.61 152.172 1475.83 146.202C1479.05 140.233 1480.65 133.75 1480.65 126.753C1480.65 119.64 1479.03 113.079 1475.77 107.071C1472.51 101.063 1468.12 96.2659 1462.6 92.6804C1457.08 89.0757 1450.88 87.2734 1444.02 87.2734C1437.1 87.2734 1430.88 89.0953 1425.36 92.7391C1419.83 96.3629 1415.45 101.16 1412.22 107.13C1409 113.099 1407.39 119.64 1407.39 126.753C1407.39 134.079 1409.06 140.718 1412.39 146.668C1415.71 152.599 1420.14 157.308 1425.71 160.796C1431.27 164.285 1437.38 166.03 1444.02 166.03" fill="#003893"/>
<path d="M1594.94 25H1609.18V177.63H1594.94V158.617C1591.41 165.129 1586.57 170.371 1580.43 174.345C1574.29 178.298 1567.01 180.275 1558.6 180.275C1551.21 180.275 1544.29 178.889 1537.84 176.117C1531.4 173.327 1525.73 169.48 1520.8 164.577C1515.88 159.654 1512.03 153.965 1509.26 147.511C1506.47 141.076 1505.07 134.157 1505.07 126.753C1505.07 119.369 1506.47 112.44 1509.26 105.966C1512.03 99.4736 1515.88 93.7753 1520.8 88.8714C1525.73 83.9492 1531.4 80.0924 1537.84 77.3009C1544.29 74.5293 1551.21 73.1436 1558.6 73.1436C1567.01 73.1436 1574.29 75.1303 1580.43 79.1036C1586.57 83.057 1591.41 88.2609 1594.94 94.7153V25ZM1558.71 166.437C1565.96 166.437 1572.2 164.664 1577.44 161.117C1582.65 157.551 1586.66 152.744 1589.47 146.698C1592.3 140.67 1593.72 134.021 1593.72 126.753C1593.72 119.291 1592.29 112.566 1589.44 106.578C1586.59 100.569 1582.55 95.8006 1577.32 92.2734C1572.11 88.7461 1565.9 86.9825 1558.71 86.9825C1551.52 86.9825 1544.97 88.7657 1539.06 92.3321C1533.17 95.8785 1528.46 100.675 1524.93 106.723C1521.4 112.75 1519.64 119.427 1519.64 126.753C1519.64 134.157 1521.43 140.863 1525.02 146.871C1528.62 152.861 1533.39 157.619 1539.32 161.146C1545.25 164.673 1551.72 166.437 1558.71 166.437Z" fill="#003893"/>
<path d="M1677.65 180.276C1668.29 180.276 1659.76 177.873 1652.06 173.066C1644.37 168.24 1638.23 161.776 1633.63 153.674C1629.06 145.573 1626.77 136.599 1626.77 126.753C1626.77 119.291 1628.1 112.324 1630.75 105.85C1633.39 99.3766 1637.03 93.6783 1641.69 88.7553C1646.34 83.8323 1651.75 79.985 1657.91 77.2135C1664.09 74.4228 1670.67 73.0275 1677.65 73.0275C1685.19 73.0275 1692.13 74.5198 1698.46 77.5044C1704.8 80.489 1710.26 84.6658 1714.83 90.0349C1719.43 95.3841 1722.89 101.654 1725.21 108.845C1727.56 116.036 1728.53 123.808 1728.12 132.161H1641.83C1642.65 138.596 1644.7 144.362 1647.99 149.459C1651.29 154.536 1655.5 158.558 1660.61 161.524C1665.73 164.471 1671.41 165.973 1677.65 166.031C1684.43 166.031 1690.56 164.267 1696.02 160.738C1701.49 157.211 1705.88 152.366 1709.19 146.202L1723.64 149.546C1719.57 158.578 1713.44 165.962 1705.24 171.699C1697.02 177.417 1687.82 180.276 1677.65 180.276ZM1641.42 120.648H1713.79C1713.3 114.349 1711.38 108.573 1708.03 103.321C1704.68 98.0491 1700.35 93.8435 1695.06 90.7041C1689.77 87.5447 1683.97 85.9651 1677.65 85.9651C1671.35 85.9651 1665.58 87.5056 1660.35 90.5868C1655.14 93.6687 1650.86 97.8456 1647.53 103.117C1644.22 108.369 1642.18 114.213 1641.42 120.648Z" fill="#003893"/>
<path d="M902.084 359.305V216.848H947.669C955.267 216.848 962.119 218.699 968.224 222.401C974.329 226.102 979.194 231.092 982.818 237.372C986.462 243.633 988.283 250.668 988.283 258.479C988.283 266.348 986.432 273.432 982.73 279.732C979.029 286.049 974.106 291.04 967.961 294.703C961.837 298.367 955.073 300.199 947.669 300.199H916.33V359.302L902.084 359.305ZM916.328 285.954H946.566C951.584 285.954 956.177 284.714 960.345 282.233C964.512 279.752 967.836 276.399 970.317 272.174C972.797 267.929 974.038 263.122 974.038 257.754C974.038 252.404 972.797 247.607 970.317 243.363C967.836 239.119 964.512 235.765 960.345 233.303C956.178 230.823 951.585 229.583 946.564 229.583H916.33L916.328 285.954Z" fill="#003893"/>
<path d="M1057.77 359.305H1039.65L1002.53 257.26H1017.68L1048.72 342.616L1079.75 257.26H1094.92L1057.77 359.305Z" fill="#003893"/>
<path d="M1165.22 271.795H1140.91L1140.8 359.303H1126.55L1126.67 271.795H1108.24V257.551H1126.67L1126.55 225.599H1140.8L1140.91 257.551H1165.22L1165.22 271.795Z" fill="#003893"/>
<path d="M1185.37 361.949C1183.14 361.949 1181.24 361.154 1179.67 359.564C1178.12 357.976 1177.34 356.028 1177.34 353.722C1177.34 351.551 1178.12 349.671 1179.67 348.081C1181.24 346.472 1183.14 345.668 1185.37 345.668C1187.67 345.668 1189.62 346.472 1191.21 348.081C1192.82 349.671 1193.62 351.551 1193.62 353.722C1193.62 356.028 1192.82 357.976 1191.21 359.564C1189.62 361.154 1187.67 361.949 1185.37 361.949Z" fill="#003893"/>
<path d="M1266.88 359.305V216.848H1281.13V345.056H1346.54V359.302L1266.88 359.305Z" fill="#003893"/>
<path d="M1420.94 271.795H1396.61L1396.52 359.303H1382.27L1382.36 271.795H1363.96V257.551H1382.36L1382.27 225.599H1396.52L1396.6 257.551H1420.94L1420.94 271.795Z" fill="#003893"/>
<path d="M1520.13 206.673H1534.38V359.305H1520.13V340.291C1516.61 346.804 1511.77 352.047 1505.63 356.02C1499.5 359.973 1492.23 361.95 1483.82 361.95C1476.42 361.95 1469.5 360.564 1463.07 357.793C1456.61 355.002 1450.92 351.155 1446 346.251C1441.1 341.328 1437.25 335.639 1434.46 329.185C1431.69 322.751 1430.3 315.832 1430.3 308.428C1430.3 301.044 1431.69 294.115 1434.46 287.642C1437.25 281.148 1441.1 275.45 1446 270.547C1450.92 265.624 1456.61 261.767 1463.07 258.976C1469.5 256.205 1476.42 254.819 1483.82 254.819C1492.23 254.819 1499.5 256.805 1505.63 260.778C1511.77 264.732 1516.61 269.936 1520.13 276.391L1520.13 206.673ZM1483.91 348.111C1491.18 348.111 1497.42 346.337 1502.63 342.79C1507.87 339.224 1511.89 334.417 1514.7 328.371C1517.51 322.342 1518.91 315.694 1518.91 308.427C1518.91 300.965 1517.49 294.239 1514.64 288.251C1511.79 282.242 1507.76 277.474 1502.55 273.946C1497.31 270.419 1491.1 268.655 1483.91 268.655C1476.72 268.655 1470.18 270.439 1464.29 274.005C1458.38 277.552 1453.66 282.349 1450.13 288.396C1446.6 294.423 1444.84 301.1 1444.84 308.427C1444.84 315.83 1446.64 322.536 1450.24 328.544C1453.83 334.533 1458.59 339.292 1464.52 342.819C1470.47 346.347 1476.93 348.111 1483.91 348.111Z" fill="#003893"/>
<path d="M1562.78 361.949C1560.54 361.949 1558.64 361.154 1557.08 359.564C1555.52 357.976 1554.73 356.028 1554.73 353.722C1554.73 351.551 1555.52 349.671 1557.08 348.081C1558.64 346.472 1560.54 345.668 1562.78 345.668C1565.09 345.668 1567.04 346.472 1568.63 348.081C1570.22 349.671 1571.01 351.551 1571.01 353.722C1571.01 356.028 1570.22 357.976 1568.63 359.564C1567.04 361.154 1565.09 361.949 1562.78 361.949" fill="#003893"/>
<path d="M223.71 239.383H195.845L150.876 161.169H150.24C150.431 164.423 150.598 167.698 150.739 170.994L151.164 180.869C151.297 184.14 151.434 187.427 151.576 190.732V239.383H132V136H159.64L204.547 213.428H205.046C204.946 210.224 204.826 207.04 204.684 203.878C204.543 200.723 204.414 197.565 204.297 194.402C204.181 191.248 204.077 188.089 203.985 184.926V136H223.71V239.383Z" fill="#DC143C"/>
<path d="M551.763 154.727C547.46 154.727 543.652 155.559 540.34 157.223C537.027 158.888 534.243 161.293 531.988 164.439C529.74 167.586 528.038 171.381 526.881 175.825C525.716 180.278 525.134 185.284 525.134 190.844C525.134 198.343 526.066 204.739 527.93 210.032C529.794 215.326 532.683 219.362 536.594 222.142C540.514 224.931 545.571 226.325 551.763 226.325C556.066 226.325 560.381 225.838 564.709 224.864C569.037 223.898 573.74 222.521 578.817 220.732V239.596C574.122 241.526 569.503 242.916 564.959 243.765C560.414 244.614 555.313 245.039 549.653 245.039C538.725 245.039 529.745 242.775 522.712 238.247C515.67 233.728 510.456 227.394 507.069 219.246C503.69 211.098 502 201.585 502 190.707C502 182.675 503.086 175.322 505.258 168.647C507.439 161.972 510.631 156.191 514.834 151.306C519.045 146.429 524.243 142.658 530.427 139.995C536.619 137.332 543.731 136 551.763 136C557.031 136 562.312 136.666 567.605 137.998C572.907 139.329 577.976 141.156 582.811 143.478L575.558 161.755C571.588 159.874 567.597 158.231 563.586 156.824C559.574 155.426 555.633 154.727 551.763 154.727Z" fill="#DC143C"/>
<path d="M56.7981 56.7856C-18.936 132.481 -18.936 255.727 56.818 331.451C132.561 407.194 255.758 407.194 331.502 331.47L338.611 324.341L296.676 282.415L289.537 289.533C236.965 342.105 151.355 342.105 98.7344 289.505C46.1639 236.914 46.1639 151.332 98.7344 98.7319C151.335 46.1326 236.937 46.1326 289.537 98.7319L433.613 242.809L475.55 200.893L331.473 56.7856C255.719 -18.9285 132.513 -18.9285 56.7981 56.7856Z" fill="#DC143C"/>
<path d="M392.964 56.8734L386.243 63.6237L428.267 105.493L434.987 98.771C447.477 86.215 462.333 76.2607 478.695 69.4843C495.057 62.7079 512.601 59.2439 530.311 59.2929C566.353 59.2929 600.198 73.3353 625.692 98.8097C638.267 111.307 648.237 126.175 655.026 142.552C661.815 158.93 665.286 176.492 665.24 194.22C665.24 230.263 651.196 264.128 625.722 289.612C573.15 342.183 487.559 342.183 434.939 289.612L279.955 134.629L238 176.555L393.012 331.558C468.728 407.283 591.973 407.283 667.697 331.558C704.34 294.856 724.571 246.122 724.571 194.23C724.64 168.71 719.643 143.43 709.87 119.855C700.097 96.2804 685.743 74.8796 667.638 56.8934C649.649 38.7984 628.248 24.4525 604.675 14.6867C581.102 4.92083 555.826 -0.0708466 530.311 0.000759607C504.795 -0.0643221 479.52 4.9283 455.945 14.6901C432.37 24.4519 410.964 38.7892 392.964 56.8734Z" fill="#DC143C"/>
</svg>
